<svg width="77" height="78" viewBox="0 0 77 78" fill="none" xmlns="http://www.w3.org/2000/svg">
<path fill-rule="evenodd" clip-rule="evenodd" d="M44.9664 22.7917C44.119 22.7917 43.3062 23.1284 42.7069 23.7277C42.1077 24.3269 41.771 25.1397 41.771 25.9872V51.5506C41.771 52.3981 42.1077 53.2109 42.7069 53.8101C43.3062 54.4094 44.119 54.746 44.9664 54.746H57.7482C58.5956 54.746 59.4084 54.4094 60.0077 53.8101C60.6069 53.2109 60.9436 52.3981 60.9436 51.5506V25.9872C60.9436 25.1397 60.6069 24.3269 60.0077 23.7277C59.4084 23.1284 58.5956 22.7917 57.7482 22.7917H44.9664ZM54.5527 29.1826H48.1619V48.3552H54.5527V29.1826Z" fill="#6047FC"/>
<path d="M19.4032 22.7917C18.5557 22.7917 17.7429 23.1284 17.1437 23.7277C16.5444 24.3269 16.2078 25.1397 16.2078 25.9872C16.2078 26.8347 16.5444 27.6474 17.1437 28.2467C17.7429 28.8459 18.5557 29.1826 19.4032 29.1826H32.1849C33.0324 29.1826 33.8452 28.8459 34.4444 28.2467C35.0437 27.6474 35.3803 26.8347 35.3803 25.9872C35.3803 25.1397 35.0437 24.3269 34.4444 23.7277C33.8452 23.1284 33.0324 22.7917 32.1849 22.7917H19.4032ZM19.4032 35.5735C18.5557 35.5735 17.7429 35.9101 17.1437 36.5094C16.5444 37.1086 16.2078 37.9214 16.2078 38.7689C16.2078 39.6164 16.5444 40.4291 17.1437 41.0284C17.7429 41.6277 18.5557 41.9643 19.4032 41.9643H32.1849C33.0324 41.9643 33.8452 41.6277 34.4444 41.0284C35.0437 40.4291 35.3803 39.6164 35.3803 38.7689C35.3803 37.9214 35.0437 37.1086 34.4444 36.5094C33.8452 35.9101 33.0324 35.5735 32.1849 35.5735H19.4032ZM16.2078 51.5506C16.2078 50.7031 16.5444 49.8904 17.1437 49.2911C17.7429 48.6918 18.5557 48.3552 19.4032 48.3552H32.1849C33.0324 48.3552 33.8452 48.6918 34.4444 49.2911C35.0437 49.8904 35.3803 50.7031 35.3803 51.5506C35.3803 52.3981 35.0437 53.2109 34.4444 53.8101C33.8452 54.4094 33.0324 54.746 32.1849 54.746H19.4032C18.5557 54.746 17.7429 54.4094 17.1437 53.8101C16.5444 53.2109 16.2078 52.3981 16.2078 51.5506Z" fill="#6047FC"/>
<path fill-rule="evenodd" clip-rule="evenodd" d="M13.0122 10.01C10.4698 10.01 8.03145 11.02 6.23368 12.8178C4.4359 14.6155 3.42592 17.0539 3.42592 19.5963V57.9414C3.42592 60.4839 4.4359 62.9222 6.23368 64.72C8.03145 66.5177 10.4698 67.5277 13.0122 67.5277H64.1391C66.6815 67.5277 69.1198 66.5177 70.9176 64.72C72.7154 62.9222 73.7253 60.4839 73.7253 57.9414V19.5963C73.7253 17.0539 72.7154 14.6155 70.9176 12.8178C69.1198 11.02 66.6815 10.01 64.1391 10.01H13.0122ZM64.1391 16.4009H13.0122C12.1647 16.4009 11.352 16.7375 10.7527 17.3368C10.1534 17.936 9.81678 18.7488 9.81678 19.5963V57.9414C9.81678 58.7889 10.1534 59.6017 10.7527 60.201C11.352 60.8002 12.1647 61.1369 13.0122 61.1369H64.1391C64.9865 61.1369 65.7993 60.8002 66.3986 60.201C66.9978 59.6017 67.3345 58.7889 67.3345 57.9414V19.5963C67.3345 18.7488 66.9978 17.936 66.3986 17.3368C65.7993 16.7375 64.9865 16.4009 64.1391 16.4009Z" fill="#6047FC"/>
</svg>
