<svg width="69" height="68" viewBox="0 0 69 68" fill="none" xmlns="http://www.w3.org/2000/svg">
<path d="M11.8401 31.3451C11.0437 31.3451 10.3765 31.0752 9.83869 30.5355C9.30085 29.9958 9.03099 29.3286 9.02911 28.534V11.6679C9.02911 10.8715 9.29897 10.2043 9.83869 9.66651C10.3784 9.12867 11.0455 8.85881 11.8401 8.85693H28.7062C29.5027 8.85693 30.1708 9.12679 30.7105 9.66651C31.2502 10.2062 31.5191 10.8734 31.5172 11.6679V28.534C31.5172 29.3305 31.2474 29.9986 30.7077 30.5383C30.168 31.078 29.5008 31.3469 28.7062 31.3451H11.8401ZM39.9503 31.3451C39.1538 31.3451 38.4867 31.0752 37.9488 30.5355C37.411 29.9958 37.1411 29.3286 37.1393 28.534V11.6679C37.1393 10.8715 37.4091 10.2043 37.9488 9.66651C38.4886 9.12867 39.1557 8.85881 39.9503 8.85693H56.8164C57.6128 8.85693 58.2809 9.12679 58.8206 9.66651C59.3604 10.2062 59.6293 10.8734 59.6274 11.6679V28.534C59.6274 29.3305 59.3575 29.9986 58.8178 30.5383C58.2781 31.078 57.611 31.3469 56.8164 31.3451H39.9503ZM11.8401 59.4552C11.0437 59.4552 10.3765 59.1854 9.83869 58.6456C9.30085 58.1059 9.03099 57.4388 9.02911 56.6442V39.7781C9.02911 38.9817 9.29897 38.3145 9.83869 37.7767C10.3784 37.2388 11.0455 36.969 11.8401 36.9671H28.7062C29.5027 36.9671 30.1708 37.237 30.7105 37.7767C31.2502 38.3164 31.5191 38.9835 31.5172 39.7781V56.6442C31.5172 57.4407 31.2474 58.1087 30.7077 58.6485C30.168 59.1882 29.5008 59.4571 28.7062 59.4552H11.8401ZM48.3833 59.4552C47.5869 59.4552 46.9197 59.1854 46.3819 58.6456C45.8441 58.1059 45.5742 57.4388 45.5723 56.6442V51.0222H39.88C39.0836 51.0222 38.4277 50.7523 37.9123 50.2126C37.3969 49.6729 37.1393 49.0057 37.1393 48.2112C37.1393 47.4147 37.4091 46.7476 37.9488 46.2097C38.4886 45.6719 39.1557 45.402 39.9503 45.4001H45.5723V39.7078C45.5723 38.9114 45.8422 38.2555 46.3819 37.7401C46.9216 37.2248 47.5888 36.9671 48.3833 36.9671C49.1798 36.9671 49.8479 37.237 50.3876 37.7767C50.9273 38.3164 51.1962 38.9835 51.1944 39.7781V45.4001H56.8867C57.6831 45.4001 58.339 45.67 58.8544 46.2097C59.3697 46.7494 59.6274 47.4166 59.6274 48.2112C59.6274 49.0076 59.3575 49.6757 58.8178 50.2154C58.2781 50.7551 57.611 51.024 56.8164 51.0222H51.1944V56.7145C51.1944 57.5109 50.9245 58.1668 50.3848 58.6822C49.8451 59.1975 49.1779 59.4552 48.3833 59.4552ZM42.7613 14.479V25.723H54.0054V14.479H42.7613ZM14.6511 14.479V25.723H25.8952V14.479H14.6511ZM14.6511 42.5891V53.8332H25.8952V42.5891H14.6511Z" fill="white"/>
</svg>
