<svg width="86" height="85" viewBox="0 0 86 85" fill="none" xmlns="http://www.w3.org/2000/svg">
<path d="M42.923 19.7865V32.204M56.6734 8.31616H29.4882C28.5579 8.31616 27.6657 8.68573 27.0079 9.34356C26.35 10.0014 25.9805 10.8936 25.9805 11.8239V73.2098C25.9805 74.1401 26.35 75.0323 27.0079 75.6902C27.6657 76.348 28.5579 76.7176 29.4882 76.7176H56.6734C57.6037 76.7176 58.4959 76.348 59.1538 75.6902C59.8116 75.0323 60.1812 74.1401 60.1812 73.2098V11.8239C60.1812 10.8936 59.8116 10.0014 59.1538 9.34356C58.4959 8.68573 57.6037 8.31616 56.6734 8.31616ZM42.923 19.7164L39.2924 23.3469C38.5728 24.0653 38.0825 24.9809 37.8835 25.978C37.6845 26.9751 37.7857 28.0088 38.1744 28.9483C38.5631 29.8879 39.2217 30.691 40.067 31.256C40.9123 31.8211 41.9062 32.1227 42.923 32.1227C43.9397 32.1227 44.9336 31.8211 45.7789 31.256C46.6242 30.691 47.2828 29.8879 47.6715 28.9483C48.0602 28.0088 48.1615 26.9751 47.9624 25.978C47.7634 24.9809 47.2731 24.0653 46.5535 23.3469L42.923 19.7164Z" stroke="#6047FC" stroke-width="4.0594" stroke-linecap="round" stroke-linejoin="round"/>
</svg>
