<svg width="198" height="662" viewBox="0 0 198 662" fill="none" xmlns="http://www.w3.org/2000/svg">
<circle cx="98.9703" cy="99.4215" r="98.0677" fill="#0C0433" stroke="white" stroke-width="1.6482"/>
<circle cx="98.9703" cy="99.4217" r="50.6683" fill="#0C0433" stroke="white" stroke-width="0.851568"/>
<path d="M39.5041 68.8915L25.8528 53.1982L27.8032 51.5015L33.7318 58.3169L41.8475 51.2572L35.9189 44.4419L37.8694 42.7452L51.5207 58.4385L49.5702 60.1352L43.4076 53.0508L35.292 60.1104L41.4546 67.1948L39.5041 68.8915ZM43.6163 41.8419C42.9437 42.427 41.9991 42.3823 41.3945 41.6873C40.7899 40.9923 40.8765 40.0505 41.5491 39.4655C42.2217 38.8804 43.1664 38.9251 43.7709 39.6201C44.3755 40.3151 44.2889 41.2568 43.6163 41.8419ZM54.2978 56.0227L44.3519 44.589L46.1902 42.9899L56.1362 54.4235L54.2978 56.0227ZM53.9996 36.1967L54.5152 35.7481L56.0753 37.5416L55.1562 38.3412C52.7573 40.4279 53.8429 42.9888 55.4225 44.8047L60.493 50.6336L58.6546 52.2328L48.7087 40.7991L50.3004 39.4145L52.0487 40.9262C51.8262 39.5838 51.9594 37.9713 53.9996 36.1967ZM70.7833 41.9186C67.3532 44.9023 63.0636 44.4985 60.0213 41.0012C56.9985 37.5262 57.1284 33.2386 60.3567 30.4304C63.5851 27.6221 67.4671 27.8291 70.5016 31.1363C70.7161 31.3829 70.9277 31.6714 71.1393 31.96L62.2614 39.6827L62.3979 39.8397C64.3568 41.9558 67.0505 42.2907 69.2252 40.399C70.8393 38.9948 71.3537 37.0508 70.4477 35.2396L72.3085 33.621C73.8493 36.2978 73.4288 39.6173 70.7833 41.9186ZM61.0474 38.0607L67.8851 32.1126C65.9896 30.2958 63.6889 30.3674 61.7833 32.025C60.1019 33.4877 59.6081 36.0439 61.0474 38.0607Z" fill="white"/>
<path d="M76.5626 162.518L61.5017 176.864L59.7187 174.992L66.2594 168.762L58.8406 160.974L52.2998 167.204L50.5168 165.332L65.5778 150.986L67.3608 152.858L60.5618 159.334L67.9807 167.123L74.7797 160.647L76.5626 162.518ZM49.355 159.632C49.9698 160.277 49.9678 161.223 49.3008 161.858C48.6339 162.493 47.6891 162.449 47.0743 161.804C46.4595 161.159 46.4615 160.213 47.1285 159.577C47.7954 158.942 48.7402 158.986 49.355 159.632ZM63.0391 148.321L52.0661 158.773L50.3856 157.008L61.3585 146.556L63.0391 148.321ZM43.2467 149.514L42.7753 149.019L44.4966 147.379L45.3369 148.262C47.5297 150.564 50.039 149.364 51.7817 147.704L57.3758 142.375L59.0563 144.139L48.0833 154.592L46.6282 153.064L48.0595 151.249C46.7285 151.532 45.1117 151.472 43.2467 149.514ZM48.205 132.489C51.3406 135.781 51.1309 140.084 47.7745 143.281C44.4395 146.458 40.1504 146.522 37.1993 143.423C34.2481 140.325 34.2796 136.438 37.4465 133.257C37.6832 133.032 37.9618 132.807 38.2405 132.583L46.3562 141.103L46.5068 140.96C48.5324 138.907 48.7453 136.201 46.7573 134.114C45.2818 132.565 43.3165 132.139 41.5481 133.126L39.8471 131.34C42.4515 129.68 45.7867 129.95 48.205 132.489ZM44.7907 142.389L38.54 135.827C36.8105 137.802 36.9859 140.098 38.7279 141.926C40.265 143.54 42.8409 143.918 44.7907 142.389Z" fill="white"/>
<path d="M118.877 42.6901L125.769 23.0651L128.853 24.1481L130.085 42.8785L142.674 29.0017L145.702 30.065L138.81 49.6901L136.427 48.8532L141.862 33.3775L129.923 46.5691L127.764 45.8111L126.695 28.0512L121.26 43.527L118.877 42.6901ZM148.807 53.3896C144.518 51.8833 142.748 47.955 144.284 43.5814C145.81 39.2358 149.601 37.2289 153.638 38.6466C157.675 40.0643 159.415 43.541 158.04 47.8138C157.932 48.1222 157.786 48.4488 157.639 48.7754L146.537 44.8766L146.468 45.0729C145.597 47.8219 146.638 50.3289 149.358 51.2839C151.376 51.9927 153.32 51.4787 154.447 49.7957L156.774 50.6129C155.209 53.2756 152.115 54.5513 148.807 53.3896ZM147.347 43.0194L155.898 46.0222C156.54 43.4763 155.34 41.5119 152.957 40.675C150.854 39.9366 148.388 40.7712 147.347 43.0194Z" fill="white"/>
<path d="M155.228 127.194L170.444 141.376L168.215 143.767L150.562 137.387L158.227 154.483L156.039 156.831L140.824 142.649L142.546 140.801L154.544 151.985L147.246 135.758L148.806 134.085L165.505 140.225L153.506 129.042L155.228 127.194ZM133.426 150.324C136.526 146.998 140.834 146.952 144.225 150.112C147.594 153.252 147.913 157.53 144.996 160.66C142.078 163.79 138.196 163.99 134.833 161.017C134.593 160.795 134.353 160.53 134.112 160.265L142.135 151.657L141.983 151.515C139.814 149.615 137.1 149.564 135.135 151.672C133.676 153.237 133.367 155.224 134.458 156.931L132.776 158.735C130.964 156.234 131.036 152.888 133.426 150.324ZM143.512 153.144L137.333 159.773C139.408 161.382 141.688 161.071 143.41 159.223C144.93 157.593 145.154 154.999 143.512 153.144Z" fill="white"/>
<path fill-rule="evenodd" clip-rule="evenodd" d="M80.4759 120.072C80.8537 120.428 81.3574 120.62 81.8763 120.604C82.3951 120.589 82.8865 120.368 83.2425 119.99L114.899 86.3946L115.414 103.805C115.429 104.324 115.65 104.816 116.028 105.173C116.407 105.529 116.911 105.721 117.43 105.705C117.95 105.69 118.442 105.469 118.798 105.09C119.155 104.712 119.346 104.208 119.331 103.688L118.673 81.5558C118.666 81.2985 118.608 81.0451 118.503 80.8102C118.397 80.5754 118.246 80.3636 118.059 80.1871C117.872 80.0105 117.651 79.8727 117.411 79.7814C117.17 79.6902 116.914 79.6473 116.656 79.6553L94.5238 80.313C94.2666 80.3207 94.0134 80.3789 93.7787 80.4844C93.544 80.5899 93.3323 80.7406 93.1559 80.9279C92.7995 81.3061 92.6079 81.8105 92.6233 82.33C92.6388 82.8494 92.8599 83.3415 93.2382 83.6979C93.6164 84.0543 94.1208 84.2459 94.6403 84.2305L112.05 83.7103L80.3937 117.306C80.0378 117.684 79.8464 118.187 79.8619 118.706C79.8773 119.225 80.0982 119.717 80.4759 120.072Z" fill="white"/>
<path d="M128.843 656.364L70.7427 656.466L70.6743 617.456L81.3813 617.437L81.4279 643.997L94.4588 643.974L94.421 622.394L104.63 622.376L104.668 643.956L118.114 643.933L118.066 616.46L128.773 616.441L128.843 656.364ZM128.769 614.176L106.995 598.361L86.1055 613.504L86.082 600.141L98.6826 591.321L86.0508 582.296L86.0287 569.68L106.971 584.666L128.689 568.775L128.713 582.138L115.367 591.956L128.747 601.643L128.769 614.176ZM85.4798 540.628C85.3766 529.091 93.911 520.776 107.357 520.752C120.637 520.729 129.118 529.014 129.138 540.468C129.148 546.361 126.748 550.598 123.267 553.343L145.262 553.305L145.283 565.008L86.0207 565.112L86.0028 554.903L91.8937 553.73C88.237 550.998 85.4904 546.687 85.4798 540.628ZM119.597 543.141C119.586 536.75 114.516 532.609 107.212 532.622C99.9908 532.634 95.0181 536.793 95.0293 543.184C95.0405 549.575 100.027 553.55 107.248 553.538C114.552 553.525 119.608 549.532 119.597 543.141ZM129.055 493.133C129.08 507.326 120.546 515.89 107.349 515.913C94.0685 515.936 85.4213 507.236 85.3982 494.039C85.3758 481.257 93.3286 472.612 105.861 472.424C107.106 472.421 108.517 472.502 109.846 472.749L109.9 503.708L110.481 503.707C116.54 503.447 120.185 499.54 120.175 493.647C120.166 488.916 118.085 485.599 114.1 484.61L114.079 473.073C122.382 474.387 129.035 481.762 129.055 493.133ZM102.264 503.472L102.23 484.216C97.0025 485.055 94.1037 488.629 94.113 493.941C94.1219 499.004 97.1996 502.817 102.264 503.472ZM85.8051 442.076L85.8017 440.084L96.4256 440.066L96.4338 444.714C96.446 451.686 101.099 454.333 107.573 454.322L128.489 454.285L128.509 465.988L85.8472 466.063L85.8286 455.439L92.2177 454.349C88.3956 452.032 85.8168 448.716 85.8051 442.076ZM81.2172 428.972C81.2239 432.79 78.4071 435.783 74.6721 435.79C70.8541 435.796 68.0269 432.813 68.0202 428.995C68.0135 425.177 70.8303 422.184 74.6483 422.178C78.3833 422.171 81.2105 425.154 81.2172 428.972ZM128.454 434.782L85.7925 434.857L85.7719 423.071L128.434 422.996L128.454 434.782ZM128.881 393.841C128.906 408.034 120.372 416.598 107.175 416.621C93.8946 416.644 85.2474 407.945 85.2242 394.748C85.2018 381.966 93.1547 373.32 105.687 373.132C106.932 373.13 108.344 373.21 109.672 373.457L109.726 404.416L110.307 404.415C116.366 404.155 120.011 400.248 120.001 394.355C119.992 389.624 117.912 386.307 113.926 385.318L113.906 373.781C122.208 375.095 128.861 382.47 128.881 393.841ZM102.09 404.18L102.056 384.924C96.8285 385.763 93.9298 389.337 93.9391 394.649C93.9479 399.712 97.0256 403.525 102.09 404.18ZM85.1323 342.287C85.1162 333.074 89.9994 325.181 104.607 325.155L128.262 325.114L128.283 336.817L105.79 336.856C98.5689 336.869 94.7557 339.614 94.766 345.507C94.7766 351.566 99.0987 355.045 106.486 355.032L128.315 354.994L128.335 366.697L85.6732 366.771L85.6553 356.562L90.9654 355.474C87.6407 352.741 85.1438 348.844 85.1323 342.287ZM128.712 297.815C128.736 311.344 120.368 319.575 106.922 319.599C93.7246 319.622 85.0775 311.005 85.0538 297.476C85.0335 285.856 91.3288 278.624 101.452 276.947L101.473 289.148C97.242 290.151 94.5911 293.061 94.5991 297.626C94.6099 303.768 99.6797 307.66 106.901 307.647C114.205 307.634 119.178 303.725 119.167 297.583C119.159 293.018 116.415 289.951 112.097 289.129L112.076 276.845C122.288 278.487 128.692 286.195 128.712 297.815ZM128.628 249.564C128.653 263.757 120.119 272.321 106.922 272.344C93.6419 272.367 84.9946 263.667 84.9715 250.471C84.9491 237.689 92.902 229.043 105.435 228.855C106.68 228.852 108.091 228.933 109.419 229.18L109.473 260.139L110.054 260.138C116.113 259.878 119.758 255.971 119.748 250.078C119.74 245.347 117.659 242.03 113.673 241.041L113.653 229.504C121.955 230.818 128.608 238.193 128.628 249.564ZM101.837 259.903L101.803 240.647C96.5758 241.486 93.677 245.06 93.6863 250.372C93.6952 255.435 96.7729 259.248 101.837 259.903Z" fill="url(#paint0_linear_1_336)"/>
<defs>
<linearGradient id="paint0_linear_1_336" x1="99.0894" y1="621.813" x2="99.0894" y2="198.313" gradientUnits="userSpaceOnUse">
<stop stop-color="#34219A"/>
<stop offset="1" stop-color="#120B34"/>
</linearGradient>
</defs>
</svg>
