<svg width="66" height="61" viewBox="0 0 66 61" fill="none" xmlns="http://www.w3.org/2000/svg">
<path d="M16.5076 11.1088C16.2096 10.8334 15.9699 10.501 15.8026 10.1313C15.6354 9.76159 15.544 9.3621 15.5338 8.95645C15.5236 8.5508 15.5949 8.14722 15.7434 7.7696C15.8919 7.39197 16.1146 7.04795 16.3984 6.7579C16.6821 6.46785 17.0212 6.23765 17.3955 6.08091C17.7698 5.92417 18.1717 5.84408 18.5774 5.84538C18.9832 5.84667 19.3846 5.92933 19.7579 6.08845C20.1312 6.24758 20.4687 6.47994 20.7507 6.7718L35.1355 20.827C35.5243 21.2031 36.0453 21.4115 36.5862 21.4074C37.1272 21.4032 37.6449 21.1868 38.0279 20.8047C38.4108 20.4226 38.6285 19.9055 38.6339 19.3645C38.6394 18.8236 38.4322 18.3021 38.0571 17.9124L25.7546 5.28915C25.4765 5.00371 25.2573 4.66627 25.1095 4.29611C24.9618 3.92595 24.8884 3.53031 24.8935 3.13178C24.8987 2.73326 24.9823 2.33965 25.1396 1.97343C25.2968 1.60722 25.5247 1.27556 25.8101 0.997406C26.3866 0.435644 27.1626 0.125897 27.9675 0.136304C28.366 0.141457 28.7596 0.225056 29.1259 0.382326C29.4921 0.539596 29.8237 0.767459 30.1019 1.0529L48.5605 19.995C50.1934 15.0627 52.9205 12.2529 54.997 10.7542C55.5496 10.3449 56.2135 10.1132 56.9008 10.0897C57.588 10.0663 58.2661 10.2521 58.8454 10.6228C59.9229 11.3103 60.5373 12.5239 60.5188 13.8094C60.4539 18.2353 60.7683 28.5499 64.3653 38.899C65.7758 42.963 65.2556 47.715 62.2524 51.1528L56.4169 57.8293C54.6851 59.8085 52.0527 60.924 49.3175 60.5153C46.0483 60.0268 40.6155 58.973 35.9865 56.8647C32.8103 55.418 29.3538 52.4998 26.8188 50.1213C21.8102 45.4123 16.9789 40.4972 11.9974 35.7505C11.4145 35.1953 11.0759 34.4313 11.0563 33.6265C11.0366 32.8217 11.3375 32.0421 11.8927 31.4591C12.4479 30.8762 13.2119 30.5376 14.0167 30.518C14.8214 30.4983 15.6011 30.7992 16.184 31.3544L22.8438 37.7025C23.2507 38.0939 23.7963 38.3076 24.3607 38.2967C24.9251 38.2858 25.4621 38.0511 25.8534 37.6443C26.2448 37.2375 26.4585 36.6918 26.4476 36.1274C26.4367 35.563 26.202 35.0261 25.7952 34.6347L14.2462 23.4251C13.6861 22.8607 13.3699 22.0991 13.3656 21.3039C13.3612 20.5088 13.6691 19.7437 14.223 19.1732C14.7769 18.6028 15.5326 18.2724 16.3275 18.2533C17.1224 18.2342 17.8931 18.5278 18.4737 19.071L28.95 29.2384C29.3579 29.6192 29.8988 29.8249 30.4567 29.8116C31.0146 29.7983 31.5451 29.5669 31.9344 29.1671C32.3237 28.7673 32.5409 28.2309 32.5393 27.6728C32.5378 27.1148 32.3177 26.5795 31.9262 26.1819L16.5076 11.1088ZM2.1242 40.2212C1.82993 40.2743 1.54902 40.3849 1.29751 40.5466C1.04599 40.7084 0.828814 40.9181 0.658375 41.1638C0.487937 41.4095 0.367578 41.6863 0.30418 41.9786C0.240783 42.2708 0.235588 42.5726 0.28889 42.8669C0.821912 45.8043 2.69407 48.8913 5.15692 51.4137C7.64512 53.961 10.9489 56.1527 14.6329 57.1069C15.2176 57.2583 15.8384 57.1711 16.3589 56.8647C16.8793 56.5582 17.2567 56.0576 17.4081 55.4729C17.5594 54.8882 17.4722 54.2673 17.1658 53.7469C16.8594 53.2264 16.3587 52.849 15.774 52.6977C13.0539 51.9924 10.4464 50.3146 8.41378 48.2316C6.35174 46.1252 5.08783 43.8187 4.76842 42.0525C4.66017 41.4592 4.32092 40.9332 3.82515 40.5898C3.32939 40.2465 2.71763 40.1139 2.1242 40.2212ZM7.83751 41.7062C7.60565 41.1482 7.60495 40.5209 7.83557 39.9624C8.06619 39.4038 8.50924 38.9598 9.06725 38.7279C9.62526 38.4961 10.2525 38.4954 10.811 38.726C11.3696 38.9566 11.8136 39.3997 12.0455 39.9577C12.757 41.6757 13.7747 43.4098 16.5311 44.6653C17.0805 44.9155 17.508 45.3737 17.7195 45.9391C17.9311 46.5045 17.9093 47.1308 17.6591 47.6802C17.4089 48.2296 16.9507 48.6571 16.3853 48.8686C15.8199 49.0802 15.1936 49.0584 14.6442 48.8082C10.5013 46.9213 8.82558 44.0838 7.83751 41.7062Z" fill="#FDDC6B"/>
</svg>
